<?xml version="1.0"?>
<svg width="948.6" height="114.4" xmlns="http://www.w3.org/2000/svg" xmlns:svg="http://www.w3.org/2000/svg" version="1.1">

 <metadata>image/svg+xml</metadata>
 <g class="layer">
  <title>Layer 1</title>
  <g fill-rule="nonzero" id="svg_1" transform="translate(627.47871,411.59318)">
   <path d="m-547.4,-331.6l-34.22,0l-6.68,6.81l-7.52,7.42c-1.45,1.62 -2.5,3.09 -3.14,4.4c-0.5,1.01 -0.71,2.02 -0.67,3.03c0.06,1.05 0.8,2.03 2.24,2.93c1.43,0.9 3.77,1.41 6.99,1.55l0.11,2.25l-33.19,0l0.71,-2.25c2.93,-0.4 5.5,-1.23 7.74,-2.5c2.97,-1.75 7.18,-5.36 12.63,-10.84l75.05,-74.34l3.69,0l-0.01,71.95c0.02,3.76 0.05,6.03 0.09,6.82c0.16,3 1,5.17 2.55,6.53c1.55,1.36 4.06,2.15 7.52,2.37l-0.7,2.26l-48.04,0l0.79,-2.26c4.74,-0.35 7.46,-0.66 8.16,-0.91c1.5,-0.61 2.83,-1.9 4,-3.83c1.15,-1.95 1.75,-5.31 1.79,-10.12l0.1,-11.27l0.01,0zm-0.27,-5.3l0.75,-28.7l-29.31,28.7l28.57,0" fill="#dc2b27" id="svg_2"/>
   <path d="m-443.7,-391.1l11.3,60.54l49.74,-60.54l39.02,0l-0.87,2.26c-5.35,0 -9.37,0.9 -12.06,2.72c-2.69,1.82 -4.89,5.42 -6.58,10.8l-17.61,56.38c-1.13,3.59 -1.66,6.26 -1.56,8.01c0.07,1.62 0.96,2.92 2.64,3.91c1.69,0.98 4.94,1.52 9.74,1.61l-0.62,2.25l-55.37,0l0.87,-2.25c5.95,0 10.3,-0.91 13.05,-2.73c2.74,-1.82 4.97,-5.42 6.66,-10.8l17.83,-57.1l-59.76,72.89l-3.44,0l-13.76,-74.32l-18.28,58.53c-0.75,2.4 -1.08,4.42 -1.01,6.05c0.11,2.18 1.15,3.94 3.09,5.28c1.95,1.33 5.2,2.07 9.74,2.2l-0.71,2.26l-36.68,0l0.63,-2.26c4.41,-0.13 7.76,-0.88 10.04,-2.23c4.02,-2.46 6.83,-6.22 8.44,-11.3l20.68,-65.09c-2.39,-2 -4.51,-3.29 -6.37,-3.9c-1.85,-0.6 -4.94,-0.91 -9.24,-0.91l0.86,-2.26l39.61,0" fill="#dc2b27" id="svg_3"/>
   <path d="m-333.9,-388.9l0.79,-2.26l54.23,0l-0.95,2.26c-4.92,0 -8.63,0.88 -11.13,2.63c-2.51,1.74 -4.6,5.39 -6.29,10.95l-17.58,56.29c-1.28,4.02 -1.88,6.71 -1.81,8.06c0.07,1.58 0.9,2.8 2.47,3.67c2.03,1.13 5.77,1.75 11.23,1.84l-0.71,2.25l-54.96,0l0.79,-2.25c5.52,0 9.51,-0.85 11.99,-2.53c2.48,-1.68 4.62,-5.36 6.41,-11.05l17.58,-56.29c1.08,-3.5 1.57,-6.14 1.48,-7.93c-0.08,-1.62 -0.91,-2.89 -2.48,-3.8c-1.57,-0.92 -5.27,-1.53 -11.06,-1.84" fill="#dc2b27" id="svg_4"/>
   <path d="m-116.4,-331.6l-34.21,0l-6.68,6.81l-7.52,7.42c-1.45,1.62 -2.5,3.09 -3.14,4.4c-0.5,1.01 -0.72,2.02 -0.67,3.03c0.05,1.05 0.8,2.03 2.24,2.93c1.43,0.9 3.76,1.41 7,1.55l0.11,2.25l-33.19,0l0.7,-2.25c2.93,-0.4 5.5,-1.23 7.73,-2.5c2.97,-1.75 7.19,-5.36 12.64,-10.84l75.05,-74.34l3.69,0l-0.01,71.95c0.03,3.76 0.06,6.03 0.1,6.82c0.15,3 1,5.17 2.54,6.53c1.55,1.36 4.06,2.15 7.52,2.37l-0.7,2.26l-48.04,0l0.8,-2.26c4.73,-0.35 7.46,-0.66 8.15,-0.91c1.5,-0.61 2.84,-1.9 3.99,-3.83c1.17,-1.95 1.76,-5.31 1.8,-10.12l0.1,-11.27zm-0.27,-5.3l0.75,-28.7l-29.3,28.7l28.56,0" fill="#dc2b27" id="svg_5"/>
   <path d="m-177.2,-392.3c0.8,0.73 1.02,3.16 1.02,3.16l-5.27,24.15l-2.85,0c-0.85,-8.15 -1.14,-14 -5.57,-17.58c-4.42,-3.58 -6.71,-5.59 -14.38,-5.59c-7.9,0 -17.88,2.41 -25.56,6.79c-7.67,4.38 -17.19,11.14 -22.3,20.27c-5.1,9.13 -8.19,18.73 -7.69,28.79c0.44,8.63 3.34,15.23 8.72,19.78c5.37,4.55 11.52,6.83 18.44,6.83c2.92,0 6.44,-0.63 10.55,-1.88l7.24,-23.22c1.23,-3.9 1.8,-6.45 1.75,-7.66c-0.09,-1.6 -1.01,-2.95 -2.78,-4.06c-1.78,-1.1 -4.77,-1.65 -8.97,-1.65l0.69,-2.52l47.68,0l-0.61,2.52c-2.83,0.14 -5.03,0.57 -6.61,1.31c-1.57,0.73 -2.79,1.82 -3.64,3.25c-0.51,0.84 -1.24,3.04 -2.21,6.56l-8.18,26.16c-11.55,3.79 -23.81,5.69 -36.78,5.69c-10.01,0 -18.58,-1.4 -25.74,-4.21c-7.15,-2.81 -13.2,-7.26 -18.11,-13.35c-4.92,-6.09 -7.57,-13.03 -7.96,-20.81c-0.82,-16.59 7.82,-30.27 25.92,-41.03c14.19,-8.34 30.19,-11.99 48.55,-12.89c1.75,0 6.24,-0.42 12.5,-0.42c5.32,0 11.48,0.17 20.4,0.8c0,0 0.77,-0.09 1.75,0.82" fill="#dc2b27" id="svg_6"/>
   <path d="m-29.92,-370.1l0,43.88c0,12.11 9.61,21.94 21.45,21.94l47.02,0c11.84,0 21.45,-9.83 21.45,-21.94l-0.01,-11.21l-21.28,0l0,4.22c0,5.45 -3.89,9.43 -9.21,9.43l-29.24,0c-5.32,0 -9.21,-3.98 -9.21,-9.43l0,-27.94c0,-5.45 3.89,-9.43 9.21,-9.43l27.33,0c5.32,0 9.21,3.98 9.21,9.43l0,2.27l21.28,0l0.01,-11.22c0,-12.11 -9.61,-21.94 -21.45,-21.94l-45.12,0c-11.84,0 -21.45,9.83 -21.45,21.94" fill="#231f20" id="svg_7"/>
   <path d="m94.01,-323.7l0,-48.76l37.66,0c6.58,0 11.91,5.46 11.91,12.2l0,24.38c0,6.73 -5.33,12.19 -11.91,12.19l-37.66,0l0,-0.01zm-20.97,19.5l68.47,0c12.7,0 23.36,-10.91 23.36,-23.89l0,-39.98c0,-12.98 -10.66,-23.89 -23.36,-23.89l-68.47,0l0,87.76" fill="#231f20" id="svg_8"/>
   <path d="m267.5,-381.7c-8.54,0 -17.24,4.51 -17.24,13.12l0,7.97l0.09,0.01l0,11.52l66.72,0l0,-12.34l-48.08,0c-6.2,-1.58 0.59,-6.63 3.74,-7l28.87,0c8.54,0 15.46,-6.99 15.46,-15.6l0,-7.97c0,-8.61 -6.92,-15.6 -15.46,-15.6l-33.98,0c-8.54,0 -17.37,5.03 -17.37,13.66l0,7.97l16.8,0l0,-1.62c0,-3.87 2.81,-6.71 6.65,-6.71l21.6,0c3.69,0 6.44,2.64 6.63,6.29c-0.19,3.65 -2.94,6.28 -6.63,6.28l-27.81,0.01" fill="#dc2b27" id="svg_9"/>
   <path d="m229.6,-378.3c6.46,-0.48 11.2,-2.5 11.2,-9.62l0,-7.97c0,-8.61 -6.93,-11.7 -15.46,-11.7l-30.18,0c-8.53,0 -17.37,5.03 -17.37,13.66l0,7.97l16.81,0l0,-1.62c0,-3.87 2.8,-6.71 6.64,-6.71l17.79,0c3.7,0 6.44,0.69 6.64,4.34c-0.2,3.66 -2.94,6.28 -6.64,6.28l-14.46,0.01l0,10.83l16.37,0c3.7,0 6.44,2.63 6.63,6.29c-0.19,3.65 -2.93,4.33 -6.63,4.33l-19.7,0c-3.84,0 -6.64,-2.83 -6.64,-6.7l0,-1.62l-16.81,0l0,7.97c0,8.61 8.84,13.65 17.37,13.65l32.09,0c9.74,-0.17 15.46,-5.04 15.46,-13.65l0,-6.02c0,-7.81 -5.69,-9.47 -13.1,-9.71" fill="#dc2b27" id="svg_10"/>
  </g>
 </g>
</svg>